<svg id="Layer_1" data-name="Layer 1" xmlns="http://www.w3.org/2000/svg" viewBox="0 0 1000 1000"><defs><style>.cls-1{fill:#3f3f3f;}.cls-2{fill:#fff;}</style></defs><circle class="cls-1" cx="500" cy="500" r="500"/><path class="cls-2" d="M443.1,517.24c-3-2-6-4-9.18-6.15-1.26-.85-2.54-1.73-3.82-2.61q-2.5-1.73-5.06-3.53l-1.64-1.15c-1.71-1.22-3.44-2.45-5.18-3.71l-4.07-3-2.58-1.9-3.09-2.32-1-.77-3.18-2.42-1.09-.84q-2.55-2-5.12-4L397,484c-6.74-5.38-13.51-11.06-20.17-17l-.46-.41c-65.59-58.88-120.07-145.22-22.92-237.26-37.93,25.86-60.35,50-77.59,74.14-46.55,101.72-31,201.72,100,287.93,33.37,21.91,58.64,42.27,77.49,61.06,107.13,107.39,3.55,164.8,3.55,164.8,24.14,6.9,56.89,8.62,56.89,8.62C712.07,731,560.34,593.1,443.1,517.24Z"/><path class="cls-2" d="M667.24,448.28c-81-77.59-291.38-184.49-151.72-275.87l-2,.18.26-.18A332.55,332.55,0,0,0,389.65,206.9C293.1,365.52,532.76,462.07,624.14,558.62c82.76,81,89.65,213.79-34.49,263.79a14.15,14.15,0,0,0,2-.09l-.22.09c1.72,0,3.45,0,5.17-1.72C727.59,781,819,591.38,667.24,448.28Zm-73,372.94a7.13,7.13,0,0,0,.6-.53l2.49-.78C596.3,820.36,595.26,820.78,594.23,821.22Z"/></svg>