<svg id="Layer_1" data-name="Layer 1" xmlns="http://www.w3.org/2000/svg" xmlns:xlink="http://www.w3.org/1999/xlink" viewBox="0 0 1000 1000"><defs><style>.cls-1{fill:#20817f;}.cls-2{fill:#2dbbb1;}.cls-3{opacity:0.5;isolation:isolate;fill:url(#linear-gradient);}.cls-4{fill:#005550;}.cls-5{fill:#fff;}</style><linearGradient id="linear-gradient" x1="62.47" y1="7054.31" x2="922.26" y2="7054.31" gradientTransform="matrix(1, 0, 0, -1, 0, 7546.57)" gradientUnits="userSpaceOnUse"><stop offset="0" stop-color="#404042"/><stop offset="1" stop-color="#48484b"/></linearGradient></defs><path class="cls-1" d="M1001.94,500.9c0,276.66-224.28,500.94-500.94,500.94S.06,777.56.06,500.9,224.34,0,501,0,1001.94,224.24,1001.94,500.9Z"/><path class="cls-2" d="M884.37,178.55C792.43,69.33,655.07,0,501.28,0,224.62,0,.34,224.24.34,500.9A501.34,501.34,0,0,0,28.48,666.67Q451.82,415.09,884.37,178.55Z"/><path class="cls-2" d="M559,998.22c114.79-13.1,217.87-65.2,295.88-142.65Q737.41,912,620.52,969C599.91,978.72,579.29,988.47,559,998.22Z"/><path class="cls-3" d="M922.26,492.26c0,237.38-192.52,429.9-429.9,429.9S62.47,729.64,62.47,492.26,255,62.37,492.36,62.37C730,62.37,922.26,254.89,922.26,492.26Z"/><path class="cls-4" d="M934.52,510.09c0,234.31-190,424.33-424.33,424.33S85.87,744.4,85.87,510.09s190-424.32,424.32-424.32C744.5,86.05,934.52,275.78,934.52,510.09Z"/><path class="cls-2" d="M477,802.36S612.72,728,399.59,588.1C276.44,507.31,262,412.3,305.69,316.18c16.72-21.73,36.78-44.58,73.28-69.93-124.26,117.3,12.81,225.67,85.25,272.48C575.11,590.33,718.32,721,530.81,811,530.81,811,500.44,808.76,477,802.36Z"/><path class="cls-2" d="M313.5,338.75a119.34,119.34,0,0,0,.27,17.27c7,74.11,81.08,136.52,141.82,175.81C554.21,595.35,608.82,660,605.76,709.3c-2,32-28.14,60.74-78,85.25-3.63-.27-9.2-.83-15.61-1.67,11.43-13.09,22.29-31.76,23.13-56,2-51-41-105.59-127-162.15-99.46-64.91-130.67-142.37-94.72-236M379,246.25c-36.78,25.35-56.84,48.2-73.28,69.93-43.46,96.12-29,191.13,93.9,271.92C612.72,728,477,802.36,477,802.36c23.4,6.68,53.77,8.63,53.77,8.63,187.23-90,44.3-220.66-66.59-292.26C392.06,472.2,255,363.55,379,246.25Z"/><path class="cls-2" d="M675.41,453.81c-76.9-72.71-275.55-174.68-144.32-260.22a307.33,307.33,0,0,0-117,32C323.25,375.8,549.76,466.91,636.13,558.57c78.84,76.06,84.14,202-32,248.8l5-.83C732.52,769.2,818.89,589.5,675.41,453.81Z"/><path class="cls-2" d="M484,216.72a71.62,71.62,0,0,0-12.25,37.33c-2.23,58.79,69.65,114,132.89,162.43,22.85,17.55,44.3,34,59.9,48.76,57.68,54.61,80.8,121.47,64.92,188.9a188.79,188.79,0,0,1-22,53.77c8.64-54.61-13.93-115.63-60.18-160.48-23.68-25.08-56-49-90.27-74.67-46.81-34.83-95.28-71.05-124-111.17-29.53-41.79-32-81.35-7.8-124A321.05,321.05,0,0,1,484,216.72m47.09-23.13a307.33,307.33,0,0,0-117,32C323.25,375.8,549.76,466.91,636.13,558.57c78.84,76.06,84.14,202-32,248.8l5-.83c123.42-37.34,209.79-217,66.31-352.72-76.9-72.44-275.55-174.69-144.32-260.23Z"/><path class="cls-5" d="M461.44,801S597.12,726.57,384,586.71c-123.14-80.8-137.63-175.8-93.89-271.92,16.72-21.73,36.78-44.58,73.28-69.93-124.26,117.29,12.81,225.67,85.25,272.48,110.89,71.6,254.09,202.27,66.59,292.26C515.21,809.6,484.84,807.37,461.44,801Z"/><path class="cls-5" d="M297.61,337.36a120.76,120.76,0,0,0,.28,17.27c7,74.11,81.08,136.52,141.82,175.8C538.33,594,592.94,658.59,589.88,707.91c-2,32-28.14,60.73-78,85.25-3.63-.28-9.2-.83-15.61-1.67,11.43-13.09,22.29-31.76,23.13-56,2-51-41-105.59-127-162.15C293.16,508.42,262,431,297.61,337.36m65.76-92.5c-36.78,25.35-56.84,48.2-73.28,69.93-43.46,96.12-29,191.12,93.89,271.92C597.12,726.57,461.44,801,461.44,801c23.4,6.69,53.77,8.64,53.77,8.64,187.22-90,44.3-220.66-66.59-292.26-72.44-46.53-209.51-155.19-85.25-272.48Z"/><path class="cls-5" d="M659.81,452.42C582.91,379.7,384.26,277.73,515.49,192.2a307.28,307.28,0,0,0-117,32c-90.83,150.17,135.68,241.28,222,332.94,78.85,76.06,84.14,202-32,248.8l5-.84C716.92,767.81,803.29,588.1,659.81,452.42Z"/><path class="cls-5" d="M468.4,215.32a71.76,71.76,0,0,0-12.26,37.34c-2.23,58.79,69.66,114,132.9,162.43,22.85,17.55,44.3,34,59.9,48.75,57.67,54.61,80.8,121.48,64.92,188.9a188.55,188.55,0,0,1-22,53.77c8.63-54.6-13.93-115.62-60.18-160.48-23.68-25.07-56-49-90.27-74.66-46.81-34.83-95.29-71.05-124-111.17-29.54-41.79-32-81.35-7.8-124a314.57,314.57,0,0,1,58.78-20.9m47.09-23.12a307.28,307.28,0,0,0-117,32c-90.83,150.17,135.68,241.28,222,332.94,78.85,76.06,84.14,202-32,248.8l5-.84c123.42-37.33,209.79-217,66.31-352.72C582.63,380,384.26,277.73,515.49,192.2Z"/></svg>