<svg xmlns="http://www.w3.org/2000/svg" xmlns:xlink="http://www.w3.org/1999/xlink" viewBox="0 0 1000 1059.33"><defs><style>.cls-1{isolation:isolate;}.cls-2{fill:#00423d;}.cls-3{fill:#002d29;}.cls-11,.cls-4{fill:#2dbbb1;}.cls-5{fill:#20817f;}.cls-6{fill:#6ceade;opacity:0.3;}.cls-7{fill:#005550;}.cls-11,.cls-8{mix-blend-mode:multiply;}.cls-8{fill:url(#linear-gradient);}.cls-9{fill:#003f3a;}.cls-10{fill:#fff;}.cls-11{opacity:0.19;}</style><linearGradient id="linear-gradient" x1="276.76" y1="269.6" x2="702.89" y2="695.72" gradientUnits="userSpaceOnUse"><stop offset="0" stop-color="#008070"/><stop offset="1" stop-color="#008070" stop-opacity="0"/></linearGradient></defs><g class="cls-1"><g id="Layer_1" data-name="Layer 1"><circle class="cls-2" cx="500" cy="559.33" r="500"/><path class="cls-3" d="M382.2,1045.33c5.93,1.44,11.9,2.79,17.91,4V421.64H382.2Z"/><path class="cls-3" d="M877.09,887.65V291H858.85V907.45Q868.23,897.79,877.09,887.65Z"/><path class="cls-3" d="M780.13,973.54a502.85,502.85,0,0,0,53.74-42V348.76H780.13Z"/><path class="cls-3" d="M65.24,806.42A502.49,502.49,0,0,0,252.09,993.63V391.42H65.24Z"/><path class="cls-3" d="M296.8,1016.28a495.85,495.85,0,0,0,53.74,20.32v-615H296.8Z"/><circle class="cls-4" cx="500" cy="507.92" r="500" transform="translate(-212.71 502.32) rotate(-45)"/><circle class="cls-5" cx="500" cy="500" r="500" transform="translate(-207.11 500) rotate(-45)"/><path class="cls-4" d="M531.75,1.11,1.11,531.75A497.44,497.44,0,0,0,99.3,799.11L799.11,99.3A497.44,497.44,0,0,0,531.75,1.11Z"/><path class="cls-4" d="M998.12,458.05a497.14,497.14,0,0,0-41.57-161.88L296.17,956.55a497.14,497.14,0,0,0,161.88,41.57Z"/><path class="cls-4" d="M907.42,210.34c-7.52-10.57-15.38-20.87-23.69-30.8L179.54,883.73c9.93,8.31,20.23,16.17,30.8,23.69Z"/><circle class="cls-6" cx="500" cy="500" r="446.59" transform="translate(-207.11 500) rotate(-45)"/><path class="cls-4" d="M500,7.29c274.92,0,497.94,221.9,499.91,496.35,0-1.22.09-2.42.09-3.64C1000,223.86,776.14,0,500,0S0,223.86,0,500c0,1.22.08,2.42.09,3.64C2.06,229.19,225.08,7.29,500,7.29Z"/><circle class="cls-6" cx="500" cy="506.03" r="395.33" transform="translate(-211.37 501.77) rotate(-45)"/><circle class="cls-7" cx="500" cy="500" r="395.33" transform="translate(-207.11 500) rotate(-45)"/><path class="cls-8" d="M554.08,891.55C733.34,867,874.34,722.39,893.17,541.37L513.41,202.8,400.49,234.16l-32.93,20.39L296.8,335.81,366.44,514.7,500,617.76l53.16,54L531.54,757.6l-69.88,31.76Z"/><path class="cls-9" d="M500,878.52C284.48,878.52,109.37,706,104.88,491.6c-.06,2.8-.21,5.58-.21,8.4,0,218.33,177,395.33,395.33,395.33S895.33,718.33,895.33,500c0-2.82-.16-5.6-.21-8.4C890.63,706,715.51,878.52,500,878.52Z"/><path class="cls-6" d="M500,111.47c217.19,0,393.41,175.17,395.24,391.93,0-1.14.09-2.26.09-3.4,0-218.33-177-395.33-395.33-395.33S104.67,281.67,104.67,500c0,1.14.08,2.26.09,3.4C106.59,286.64,282.81,111.47,500,111.47Z"/><path class="cls-3" d="M461.66,807.33S591.83,735.19,388,601.88C270.32,523.46,256.2,432.5,297,340c15.69-20.39,36.07-42.35,70.58-67.44C248.36,385.45,380.1,489,449.11,534.44c106.65,69,244.66,194.48,64.3,280.74C513.41,815.18,485.18,813.61,461.66,807.33Z"/><path class="cls-3" d="M304.82,360.35v17.26C311.1,448.18,383.24,509.35,441.27,547c94.1,61.16,147.43,123.9,144.29,171-1.57,31.37-26.66,58-75.28,81.55-3.14,0-9.41-1.57-15.69-1.57,11-12.54,22-31.36,22-53.32,1.57-48.62-39.21-101.94-122.33-155.27-94.1-64.3-123.9-138-89.4-229m62.74-87.82C333.05,296.05,312.67,318,297,340c-42.34,92.53-28.23,183.49,91,261.91,205.45,134.88,73.71,205.45,73.71,205.45,22,6.28,51.75,7.85,51.75,7.85,180.36-86.26,42.35-211.73-64.3-280.74-69-45.48-200.75-149-81.55-261.91Z"/><polygon class="cls-3" points="367.56 254.55 367.56 272.53 325.33 315.56 320.86 304.04 333.11 285.06 367.56 254.55"/><polygon class="cls-3" points="481.36 214.42 513.41 202.8 514.98 220.77 467.93 242.73 481.36 214.42"/><polygon class="cls-3" points="582.42 794.07 582.42 812.04 606.98 803.05 641.87 781.52 653.57 744.94 608.07 784.6 582.42 794.07"/><polygon class="cls-3" points="467.93 786.51 461.66 789.36 461.66 807.34 491.46 803.75 494.84 792.98 494.6 779.95 467.93 786.51"/><path class="cls-3" d="M653,471.71c-73.71-70.58-265-167.82-138-250.94a302.61,302.61,0,0,0-112.92,31.37c-87.83,144.29,130.17,232.11,213.3,319.94,75.28,73.71,81.55,194.48-31.37,240,1.57,0,3.14,0,4.7-1.57C707.89,774.4,791,601.88,653,471.71Z"/><path class="cls-3" d="M467.93,242.73c-7.84,11-11,23.52-12.55,36.07-1.56,56.46,67.44,109.78,127,156.83,22,17.26,42.35,32.94,58,47.06,54.89,51.75,78.42,117.62,62.73,181.92-4.7,18.82-11,36.08-20.38,51.76,7.84-53.32-14.12-111.35-58-153.7-22-23.52-53.33-47-86.26-72.14-45.49-32.94-92.54-69-119.2-106.65-28.23-40.78-31.36-78.42-7.84-119.2,18.82-9.41,37.64-17.25,56.46-22m45.48-22a302.61,302.61,0,0,0-112.92,31.37c-87.82,144.29,130.18,232.11,213.3,319.94,75.28,73.71,81.55,194.48-31.37,240,1.57,0,3.14,0,4.71-1.57,119.19-36.07,202.31-208.59,64.3-338.76-72.14-70.58-263.48-167.82-138-250.94Z"/><path class="cls-10" d="M461.66,789.36S591.83,717.22,388,583.91C270.32,505.49,256.2,414.52,297,322c15.69-20.39,36.07-42.34,70.58-67.44C248.36,367.47,380.1,471,449.11,516.47c106.65,69,244.66,194.47,64.3,280.73C513.41,797.2,485.18,795.63,461.66,789.36Z"/><path class="cls-10" d="M304.82,342.38v17.25C311.1,430.21,383.24,491.37,441.27,529c94.1,61.17,147.43,123.9,144.29,171-1.57,31.37-26.66,58-75.28,81.56-3.14,0-9.41-1.57-15.69-1.57,11-12.55,22-31.37,22-53.32,1.57-48.62-39.21-102-122.33-155.27-94.1-64.3-123.9-138-89.4-229m62.74-87.83C333.05,278.08,312.67,300,297,322c-42.34,92.53-28.23,183.5,91,261.92,205.45,134.88,73.71,205.45,73.71,205.45,22,6.27,51.75,7.84,51.75,7.84,180.36-86.26,42.35-211.72-64.3-280.73-69-45.48-200.75-149-81.55-261.92Z"/><path class="cls-10" d="M653,453.73C579.29,383.16,388,285.92,515,202.8a302.42,302.42,0,0,0-112.92,31.36c-87.83,144.29,130.17,232.12,213.3,320,75.28,73.71,81.55,194.47-31.37,240,1.57,0,3.14,0,4.7-1.57C707.89,756.43,791,583.91,653,453.73Z"/><path class="cls-10" d="M467.93,224.75c-7.84,11-11,23.53-12.55,36.08-1.56,56.46,67.44,109.78,127,156.83,22,17.25,42.35,32.94,58,47,54.89,51.76,78.42,117.63,62.73,181.93-4.7,18.82-11,36.07-20.38,51.76,7.84-53.33-14.12-111.36-58-153.7-22-23.53-53.33-47.05-86.26-72.15-45.49-32.93-92.54-69-119.2-106.64-28.23-40.78-31.36-78.42-7.84-119.2,18.82-9.41,37.64-17.25,56.46-22m45.48-21.95a302.42,302.42,0,0,0-112.92,31.36c-87.82,144.29,130.18,232.12,213.3,320,75.28,73.71,81.55,194.47-31.37,240,1.57,0,3.14,0,4.71-1.57,119.19-36.07,202.31-208.59,64.3-338.77C579.29,383.16,388,285.92,513.41,202.8Z"/><path class="cls-11" d="M408,487.06q-2.12-1.68-4.23-3.4-4.39-3.57-8.77-7.33-2.4-2.07-4.79-4.18-3.4-3-6.76-6.14l-.52-.49c-57-53.32-100.68-129.46-15.2-210.44-34.47,23.5-54.84,45.44-70.5,67.37-36.72,80.25-30.92,159.31,49.14,230l63.75-63.75C409.39,488.15,408.69,487.63,408,487.06Z"/><path class="cls-11" d="M515,203.38l-1.81.16.24-.16a302.17,302.17,0,0,0-112.8,31.34c-49.37,81.11-2,144.36,63.67,199.8l73.6-73.59C478,309.29,438,253.74,515,203.38Z"/><path class="cls-11" d="M593,659.74l-103,103a95.07,95.07,0,0,1-23.56,23.56L463,789.7c21.79,6,50.37,7.46,50.37,7.46C598,756.69,612.49,707.59,593,659.74Z"/><path class="cls-11" d="M582.35,794a13,13,0,0,0,1.76-.08l-.2.08c1.57,0,3.14,0,4.7-1.57C682.54,764,754,650.79,712.34,540.4l-62.41,62.41C686.66,672.92,672.74,757.62,582.35,794Zm4.15-1.09a5.9,5.9,0,0,0,.55-.48c.81-.24,1.61-.52,2.42-.78C588.5,792.11,587.5,792.52,586.5,792.94Z"/><path class="cls-11" d="M506,557.49,440.49,623q9.92,8.5,18,16.58c3.46,3.47,6.65,6.87,9.63,10.22l67-67C525.9,574,516.08,565.59,506,557.49Z"/><path class="cls-11" d="M587.77,530.14l70.66-70.65c-1.82-1.82-3.67-3.63-5.58-5.43-6.83-6.54-14.66-13.3-23.16-20.26L557.5,506C568.15,514.12,578.35,522.15,587.77,530.14Z"/></g></g></svg>