<svg id="Layer_1" data-name="Layer 1" xmlns="http://www.w3.org/2000/svg" xmlns:xlink="http://www.w3.org/1999/xlink" viewBox="0 0 1000 1000"><defs><style>.cls-1{fill:url(#New_Gradient_Swatch_1);}.cls-2{opacity:0.2;isolation:isolate;}.cls-3{fill:url(#linear-gradient);}.cls-4{fill:#fff;}</style><linearGradient id="New_Gradient_Swatch_1" x1="500" y1="1000" x2="500" gradientUnits="userSpaceOnUse"><stop offset="0" stop-color="#00b59d"/><stop offset="0.35" stop-color="#10958b"/><stop offset="1" stop-color="#20817f"/></linearGradient><linearGradient id="linear-gradient" x1="500" x2="500" y2="1000" gradientUnits="userSpaceOnUse"><stop offset="0" stop-color="#2be5c4"/><stop offset="0.2" stop-color="#16b5a1"/><stop offset="1" stop-color="#00817c"/></linearGradient></defs><circle class="cls-1" cx="500" cy="500" r="500"/><g class="cls-2"><path class="cls-3" d="M500,35A465.13,465.13,0,0,1,681,928.47,465.13,465.13,0,0,1,319,71.53,462,462,0,0,1,500,35m0-35C223.86,0,0,223.86,0,500s223.86,500,500,500,500-223.86,500-500S776.14,0,500,0Z"/></g><path class="cls-4" d="M456.9,817.24s143.1-79.31-81-225.86C246.55,505.17,231,405.17,275.86,303.45c17.24-22.42,39.66-46.55,77.59-74.14-131,124.14,13.79,237.93,89.65,287.93,117.24,75.86,269,213.79,70.69,308.62C513.79,825.86,482.76,824.14,456.9,817.24Z"/><path class="cls-4" d="M284.48,325.86v19c6.9,77.58,86.21,144.83,150,186.2C537.93,598.28,596.55,667.24,593.1,719c-1.72,34.48-29.31,63.79-82.75,89.65-3.45,0-10.35-1.72-17.25-1.72,12.07-13.8,24.14-34.49,24.14-58.62,1.73-53.45-43.1-112.07-134.48-170.69C279.31,506.9,246.55,425.86,284.48,325.86m69-96.55c-37.93,25.86-60.35,50-77.59,74.14-46.55,101.72-31,201.72,100,287.93,225.86,148.28,81,225.86,81,225.86,24.13,6.9,56.89,8.62,56.89,8.62C712.07,731,560.34,593.1,443.1,517.24c-75.86-50-220.69-163.79-89.65-287.93Z"/><path class="cls-4" d="M667.24,448.28c-81-77.59-291.38-184.49-151.72-275.87A332.44,332.44,0,0,0,391.38,206.9c-96.55,158.62,143.1,255.17,234.48,351.72,82.76,81,89.66,213.79-34.48,263.79,1.72,0,3.45,0,5.17-1.72C727.59,781,819,591.38,667.24,448.28Z"/><path class="cls-4" d="M463.79,196.55c-8.62,12.07-12.07,25.86-13.79,39.66-1.72,62.07,74.14,120.69,139.65,172.41,24.14,19,46.56,36.21,63.8,51.73,60.34,56.89,86.2,129.31,69,200C717.24,681,710.34,700,700,717.24c8.62-58.62-15.52-122.41-63.79-169-24.14-25.87-58.62-51.73-94.83-79.31-50-36.21-101.73-75.87-131-117.25-31-44.82-34.48-86.2-8.62-131,20.69-10.34,41.38-19,62.07-24.14m50-24.14A332.55,332.55,0,0,0,389.65,206.9C293.1,365.52,532.76,462.07,624.14,558.62c82.76,81,89.65,213.79-34.49,263.79,1.73,0,3.45,0,5.18-1.72,131-39.66,222.41-229.31,70.69-372.41-79.31-77.59-289.66-184.49-151.73-275.87Z"/></svg>