<svg id="Layer_1" data-name="Layer 1" xmlns="http://www.w3.org/2000/svg" xmlns:xlink="http://www.w3.org/1999/xlink" viewBox="0 0 1000 1000"><defs><style>.cls-1{fill:#fff;}.cls-2{opacity:0.2;isolation:isolate;}.cls-3{fill:url(#linear-gradient);}.cls-4{fill:url(#New_Gradient_Swatch_1);}.cls-5{fill:url(#New_Gradient_Swatch_1-2);}</style><linearGradient id="linear-gradient" y1="500" x2="1000" y2="500" gradientUnits="userSpaceOnUse"><stop offset="0" stop-color="#2be5c4"/><stop offset="0.2" stop-color="#16b5a1"/><stop offset="1" stop-color="#00817c"/></linearGradient><linearGradient id="New_Gradient_Swatch_1" x1="430.91" y1="816.53" x2="430.91" y2="180.34" gradientUnits="userSpaceOnUse"><stop offset="0" stop-color="#00b59d"/><stop offset="0.35" stop-color="#10958b"/><stop offset="1" stop-color="#20817f"/></linearGradient><linearGradient id="New_Gradient_Swatch_1-2" x1="556.63" y1="816.53" x2="556.63" y2="180.34" xlink:href="#New_Gradient_Swatch_1"/></defs><circle class="cls-1" cx="500" cy="500" r="500"/><g class="cls-2"><path class="cls-3" d="M500,35A465.13,465.13,0,0,1,681,928.47,465.13,465.13,0,0,1,319,71.53,462,462,0,0,1,500,35m0-35C223.86,0,0,223.86,0,500s223.86,500,500,500,500-223.86,500-500S776.14,0,500,0Z"/></g><path class="cls-4" d="M443.1,517.24c-3-2-6-4-9.18-6.15-1.26-.85-2.54-1.73-3.82-2.61q-2.5-1.73-5.06-3.53l-1.64-1.15c-1.71-1.22-3.44-2.45-5.18-3.71l-4.07-3-2.58-1.9-3.09-2.32-1-.77-3.18-2.42-1.09-.84q-2.55-2-5.12-4L397,484c-6.74-5.38-13.51-11.06-20.17-17l-.46-.41c-65.59-58.88-120.07-145.22-22.92-237.26-37.93,25.86-60.35,50-77.59,74.14-46.55,101.72-31,201.72,100,287.93,33.37,21.91,58.64,42.27,77.49,61.06,107.13,107.39,3.55,164.8,3.55,164.8,24.13,6.9,56.89,8.62,56.89,8.62C712.07,731,560.34,593.1,443.1,517.24Z"/><path class="cls-5" d="M667.24,448.28c-81-77.59-291.38-184.49-151.72-275.87l-2,.18.26-.18A332.55,332.55,0,0,0,389.65,206.9C293.1,365.52,532.76,462.07,624.14,558.62c82.76,81,89.65,213.79-34.49,263.79a14.15,14.15,0,0,0,2-.09l-.22.09c1.72,0,3.45,0,5.17-1.72C727.59,781,819,591.38,667.24,448.28Zm-73,372.94a7.13,7.13,0,0,0,.6-.53l2.49-.78C596.3,820.36,595.26,820.78,594.23,821.22Z"/></svg>