<svg id="Layer_1" data-name="Layer 1" xmlns="http://www.w3.org/2000/svg" xmlns:xlink="http://www.w3.org/1999/xlink" viewBox="0 0 1000 1000"><defs><style>.cls-1{fill:#bababa;}.cls-2{fill:#ddd;}.cls-3{opacity:0.5;isolation:isolate;fill:url(#linear-gradient);}.cls-4{fill:#fff;opacity:0.82;}.cls-5{opacity:0.25;}.cls-6{fill:#5d5d5d;}.cls-7{fill:#20817f;}</style><linearGradient id="linear-gradient" x1="62.47" y1="7054.31" x2="922.26" y2="7054.31" gradientTransform="matrix(1, 0, 0, -1, 0, 7546.57)" gradientUnits="userSpaceOnUse"><stop offset="0" stop-color="#404042"/><stop offset="1" stop-color="#48484b"/></linearGradient></defs><path class="cls-1" d="M1001.94,500.9c0,276.66-224.28,500.94-500.94,500.94S.06,777.56.06,500.9,224.34,0,501,0,1001.94,224.24,1001.94,500.9Z"/><path class="cls-2" d="M884.37,178.55C792.43,69.33,655.07,0,501.28,0,224.62,0,.34,224.24.34,500.9A501.34,501.34,0,0,0,28.48,666.67Q451.82,415.09,884.37,178.55Z"/><path class="cls-2" d="M559,998.22c114.79-13.1,217.87-65.2,295.88-142.65Q737.41,912,620.52,969C599.91,978.72,579.29,988.47,559,998.22Z"/><path class="cls-3" d="M922.26,492.26c0,237.38-192.52,429.9-429.9,429.9S62.47,729.64,62.47,492.26,255,62.37,492.36,62.37C730,62.37,922.26,254.89,922.26,492.26Z"/><path class="cls-4" d="M934.52,510.09c0,234.31-190,424.33-424.33,424.33S85.87,744.4,85.87,510.09s190-424.32,424.32-424.32C744.5,86.05,934.52,275.78,934.52,510.09Z"/><g class="cls-5"><path class="cls-6" d="M464.22,518.73a555.37,555.37,0,0,1-47.32-34C348.45,429.4,279.22,340.62,379,246.25h0l0,0c-36.75,25.34-56.8,48.18-73.24,69.9h0c-43.73,96.11-29.25,191.1,93.84,271.89l.06,0c66.2,43.45,98.74,80.57,112.16,111.11.21.48.41,1,.61,1.44q1.75,4.14,3,8.12C535.47,770.32,477,802.36,477,802.36h0c23.4,6.68,53.77,8.63,53.77,8.63l.3-.14C718.16,720.86,575.05,590.3,464.22,518.73Z"/><path class="cls-6" d="M675.41,453.81c-58.87-55.66-189.08-128.47-188-197.92.32-20.81,12.42-41.32,41.71-61l2-1.34h0a307.33,307.33,0,0,0-117,32c-83,137.27,99.1,225.18,197,309.28q5,4.32,9.73,8.62c1.57,1.43,3.11,2.87,4.62,4.3s3,2.87,4.44,4.3,2.86,2.86,4.25,4.29l2,2.15c78.84,76.06,84.14,202-32,248.8l5-.84q2.89-.87,5.76-1.85c2.86-1,5.71-2,8.52-3.16s5.61-2.33,8.38-3.61q2.78-1.27,5.5-2.64,5.46-2.74,10.76-5.85,2.64-1.56,5.25-3.19,3.91-2.47,7.71-5.12a204.87,204.87,0,0,0,19.47-15.45c1.55-1.4,3.08-2.81,4.59-4.26C759.86,690,786.39,558.76,675.41,453.81Z"/></g><path class="cls-7" d="M448.62,517.34C397.13,484.07,313,419.68,313.25,343.1c.12-31.16,14.2-64.34,50.12-98.24h0l-.05,0c-36.74,25.33-56.79,48.16-73.22,69.88v0c-43.73,96.09-29.26,191.08,93.8,271.86l.09.06c61.61,40.43,94.08,75.39,109.1,104.66q1.37,2.65,2.53,5.26c.48,1.06.94,2.11,1.37,3.16.3.7.58,1.41.86,2.11q1.08,2.77,2,5.47C519.87,768.93,461.44,801,461.44,801h0c23.4,6.69,53.77,8.64,53.77,8.64l.21-.1C702.6,719.51,559.47,588.91,448.62,517.34Z"/><path class="cls-7" d="M734.39,607.11q-.1-5-.49-10.11a188.79,188.79,0,0,0-2.63-20.38c-.41-2.28-.87-4.55-1.38-6.83a196.52,196.52,0,0,0-5.71-20.53q-1.74-5.14-3.77-10.27a220.59,220.59,0,0,0-23.8-44.06c-.77-1.12-1.55-2.23-2.35-3.34a273.34,273.34,0,0,0-34.45-39.17c-71.49-67.6-248.21-160.49-167.27-241.95a139.94,139.94,0,0,1,22.95-18.27,307.28,307.28,0,0,0-117,32c-90.83,150.17,135.68,241.28,222,332.94,78.85,76.06,84.14,202-32,248.8l5-.84c55-16.62,102.57-61.48,125.82-118.11.81-2,1.6-4,2.35-6s1.48-4,2.17-6.09,1.36-4.1,2-6.17a198.41,198.41,0,0,0,7.33-35.12c.26-2.18.47-4.37.65-6.57q.54-6.58.62-13.27c0-1.12,0-2.23,0-3.35S734.42,608.23,734.39,607.11Z"/></svg>