<?xml version="1.0" standalone="no"?>
<!DOCTYPE svg PUBLIC "-//W3C//DTD SVG 20010904//EN"
 "http://www.w3.org/TR/2001/REC-SVG-20010904/DTD/svg10.dtd">
<svg version="1.0" xmlns="http://www.w3.org/2000/svg"
 width="1024.000000pt" height="1024.000000pt" viewBox="0 0 1024.000000 1024.000000"
 preserveAspectRatio="xMidYMid meet">
<metadata>
Created by potrace 1.14, written by Peter Selinger 2001-2017
</metadata>
<g transform="translate(0.000000,1024.000000) scale(0.100000,-0.100000)"
fill="#000000" stroke="none">
<path d="M4775 10233 c-119 -7 -363 -36 -522 -63 -1412 -238 -2693 -1089
-3454 -2295 -234 -371 -423 -772 -554 -1175 -116 -358 -201 -782 -233 -1165
-9 -117 -9 -713 0 -830 78 -941 411 -1838 966 -2600 57 -78 207 -271 222 -285
3 -3 36 -41 74 -85 109 -126 389 -401 526 -516 805 -679 1749 -1084 2790
-1195 122 -13 252 -18 500 -18 373 -1 441 3 725 39 329 42 734 142 1060 262
937 346 1745 946 2340 1738 414 551 716 1185 876 1841 40 167 49 208 75 354
18 103 18 102 38 265 26 215 31 317 31 620 0 258 -6 429 -20 535 -51 387 -103
652 -177 895 -12 39 -22 72 -23 75 -14 54 -35 116 -76 228 -176 481 -395 890
-693 1297 -87 118 -93 126 -146 190 -19 23 -53 64 -75 90 -101 123 -374 402
-514 525 -618 543 -1355 931 -2146 1129 -163 41 -380 84 -515 102 -137 18
-154 20 -290 33 -118 11 -640 17 -785 9z"/>
</g>
</svg>
