<svg id="Layer_1" data-name="Layer 1" xmlns="http://www.w3.org/2000/svg" xmlns:xlink="http://www.w3.org/1999/xlink" viewBox="0 0 512 512"><defs><style>.cls-1{fill:url(#radial-gradient);}.cls-2{fill:url(#radial-gradient-2);}.cls-3{fill:url(#radial-gradient-3);}.cls-4{fill:url(#radial-gradient-4);}.cls-5{fill:#ddd;}.cls-6{fill:#fff;}.cls-7{fill:#256038;opacity:0.17;isolation:isolate;}</style><radialGradient id="radial-gradient" cx="177.54" cy="207.13" r="306.71" gradientUnits="userSpaceOnUse"><stop offset="0" stop-color="#b4deba"/><stop offset="0.37" stop-color="#7fbb93"/><stop offset="1" stop-color="#268051"/></radialGradient><radialGradient id="radial-gradient-2" cx="193.21" cy="504.18" r="0.01" xlink:href="#radial-gradient"/><radialGradient id="radial-gradient-3" cx="237.76" cy="511.26" r="0.02" xlink:href="#radial-gradient"/><radialGradient id="radial-gradient-4" cx="172.2" cy="219.13" r="286.38" gradientUnits="userSpaceOnUse"><stop offset="0" stop-color="#b4deba"/><stop offset="1" stop-color="#268051"/></radialGradient></defs><circle class="cls-1" cx="255.94" cy="255.98" r="255.96"/><path class="cls-2" d="M193.23,504.18h0Z"/><path class="cls-3" d="M237.73,511.27h0Z"/><circle class="cls-4" cx="255.94" cy="255.98" r="255.96"/><path class="cls-2" d="M193.23,504.18h0Z"/><path class="cls-3" d="M237.73,511.27h0Z"/><path class="cls-5" d="M193.23,504.18s112.32-61.51-64-177.18C27.43,260.2,15.44,181.51,51.48,102c13.73-18,30.38-36.92,60.7-57.81C9.46,141.24,122.87,231,182.62,269.51,274.39,328.7,392.8,436.8,237.79,511.26,237.79,511.26,212.68,509.61,193.23,504.18Z"/><path class="cls-6" d="M57.84,120.61a102,102,0,0,0,.3,14.4c5.66,61.29,67,112.94,117.41,145.47,81.5,52.57,126.78,106.11,124.23,146.91-1.65,26.44-23.35,50.17-64.5,70.58-2.94-.26-7.58-.72-13-1.44,9.48-10.87,18.47-26.35,19.2-46.38C243,408,207.66,362.84,136.41,316.09,54.1,262.09,28.29,198,57.84,120.61M112.18,44.2C81.85,65.09,65.21,84,51.48,102c-36,79.5-24,158.19,77.77,225,176.3,115.67,64,177.18,64,177.18,19.45,5.43,44.56,7.08,44.56,7.08,155-74.46,36.6-182.56-55.17-241.75C122.88,231,9.46,141.24,112.18,44.2Z"/><path class="cls-5" d="M357.3,216C293.66,155.88,129.34,71.38,238,.66a254.18,254.18,0,0,0-96.73,26.45C66.14,151.45,253.53,226.78,324.88,302.65c65.13,63,69.54,167.2-26.54,205.78,1.39-.24,2.78-.47,4.17-.73C404.66,476.86,476.09,328.14,357.3,216Z"/><path class="cls-6" d="M199,19.79a59.85,59.85,0,0,0-10.19,30.84c-1.89,48.59,57.52,94.19,109.93,134.42,18.83,14.45,36.61,28.09,49.65,40.41,47.77,45.11,66.85,100.6,53.71,156.24a157.43,157.43,0,0,1-18.2,44.56c7.25-45.28-11.54-95.76-49.68-132.78-19.49-20.65-46.34-40.63-74.76-61.78-38.81-28.87-78.94-58.73-102.47-92-24.42-34.58-26.49-67.27-6.41-102.58A240.64,240.64,0,0,1,199,19.79M238,.66a254.18,254.18,0,0,0-96.73,26.45C66.14,151.45,253.53,226.78,324.88,302.65c65.13,63,69.54,167.2-26.54,205.77,1.39-.23,2.78-.46,4.17-.72C404.66,476.86,476.09,328.14,357.3,216,293.66,155.88,129.34,71.38,238,.66Z"/><path class="cls-7" d="M510.05,223.75c-.44-4.38-1.31-8.75-2-13.13C494.29,133.15,445.49,67.71,378.74,31.16a255.71,255.71,0,0,1,70.91,135.69l2,13.13a259.71,259.71,0,0,1,2,32.17c0,141.38-114.68,256.06-256.06,256.06-2.63,0-5.25,0-7.88-.22-7.66-.22-15.1-.87-22.54-1.75A254.49,254.49,0,0,1,75,436.69,255.87,255.87,0,0,0,225.54,510c7.44.88,14.88,1.53,22.54,1.75,2.63,0,5.26.22,7.88.22C397.34,512,512,397.3,512,255.92A259.83,259.83,0,0,0,510.05,223.75Z"/></svg>